<?xml version="1.0" standalone="no"?>
<!DOCTYPE svg PUBLIC "-//W3C//DTD SVG 20010904//EN"
 "http://www.w3.org/TR/2001/REC-SVG-20010904/DTD/svg10.dtd">
<svg version="1.0" xmlns="http://www.w3.org/2000/svg"
 width="512.000000pt" height="512.000000pt" viewBox="0 0 512.000000 512.000000"
 preserveAspectRatio="xMidYMid meet">

<g transform="translate(0.000000,512.000000) scale(0.100000,-0.100000)"
fill="#000000" stroke="none">
<path d="M2477 5109 c-93 -22 -182 -96 -226 -189 l-26 -55 0 -865 0 -865 33
-67 c36 -73 87 -124 161 -160 38 -19 63 -23 141 -23 82 0 102 4 144 25 69 35
133 100 164 168 l27 57 3 829 c2 561 -1 846 -8 881 -40 190 -224 309 -413 264z"/>
<path d="M1231 4159 c-79 -24 -234 -152 -383 -316 -316 -348 -523 -805 -578
-1278 -15 -132 -12 -426 5 -557 69 -514 296 -970 669 -1341 618 -615 1529
-823 2366 -541 148 50 385 168 525 262 571 381 942 992 1015 1669 18 163 8
485 -19 638 -83 463 -296 880 -622 1216 -126 129 -233 215 -298 240 -79 30
-194 24 -269 -15 -168 -86 -233 -283 -150 -455 22 -45 52 -78 182 -201 271
-256 439 -578 496 -950 6 -41 11 -143 11 -225 0 -626 -353 -1191 -914 -1460
-737 -354 -1599 -119 -2056 560 -126 189 -213 407 -252 636 -18 107 -21 150
-16 309 8 264 54 454 164 675 87 176 164 278 338 451 195 193 218 231 218 359
0 64 -5 91 -25 135 -32 70 -97 135 -168 168 -61 29 -180 39 -239 21z"/>
</g>
</svg>
